<?xml version="1.0" standalone="no"?>
<!DOCTYPE svg PUBLIC "-//W3C//DTD SVG 20010904//EN"
 "http://www.w3.org/TR/2001/REC-SVG-20010904/DTD/svg10.dtd">
<svg version="1.0" xmlns="http://www.w3.org/2000/svg"
 width="512.000000pt" height="512.000000pt" viewBox="0 0 512.000000 512.000000"
 preserveAspectRatio="xMidYMid meet">

<g transform="translate(0.000000,512.000000) scale(0.100000,-0.100000)"
fill="#000000" stroke="none">
<path d="M95 4386 c-37 -16 -70 -52 -84 -89 -7 -18 -11 -132 -11 -299 0 -270
0 -271 25 -313 31 -54 75 -75 154 -75 l61 0 0 -85 0 -85 -53 0 c-62 0 -131
-31 -161 -73 -20 -27 -21 -44 -24 -315 -2 -265 -1 -290 16 -322 31 -58 74 -80
153 -80 l69 0 0 -90 0 -90 -69 0 c-79 0 -122 -22 -153 -80 -17 -32 -18 -57
-16 -322 3 -271 4 -288 24 -315 30 -42 99 -73 161 -73 l53 0 0 -85 0 -85 -61
0 c-80 0 -123 -21 -155 -75 l-25 -43 3 -285 c3 -270 4 -287 24 -313 11 -15 33
-37 48 -48 27 -21 31 -21 1429 -24 l1402 -2 45 22 c83 42 85 52 85 373 0 264
-1 282 -21 315 -33 57 -77 80 -150 80 l-64 0 0 84 0 83 64 5 c120 10 167 61
174 191 4 74 6 78 26 73 76 -19 211 -26 302 -17 221 23 380 86 572 227 23 17
24 17 110 -69 l87 -87 -80 -80 -80 -80 330 -330 c348 -348 376 -371 476 -385
58 -9 154 15 208 51 50 33 107 115 122 177 15 61 7 141 -20 198 -15 31 -118
141 -356 379 l-335 335 -80 -80 -80 -80 -85 85 c-47 47 -85 87 -85 90 0 3 20
32 45 65 66 86 151 264 177 370 26 107 31 331 9 430 -108 485 -488 823 -956
851 -88 6 -208 -4 -280 -22 l-23 -6 -4 159 c-4 185 -14 213 -88 251 l-44 22
-1391 0 c-1136 -1 -1395 -3 -1420 -14z m2793 -303 l2 -163 -36 -15 c-46 -19
-148 -80 -195 -117 l-37 -28 -1236 0 -1236 0 0 245 0 245 1368 -2 1367 -3 3
-162z m542 -254 c439 -70 737 -430 733 -884 -1 -199 -65 -379 -192 -537 -307
-387 -867 -443 -1257 -127 -346 281 -417 806 -161 1189 120 181 344 321 574
360 71 11 228 11 303 -1z m-1014 -301 c-68 -105 -113 -209 -140 -320 l-21 -88
-607 0 -608 0 0 -75 0 -75 600 0 c330 0 600 -3 601 -7 0 -5 4 -43 7 -85 l8
-78 -1053 0 -1053 0 0 245 0 245 1005 0 1005 0 0 75 0 75 -885 0 -885 0 0 85
0 85 1040 0 1040 0 -54 -82z m-91 -963 c19 -44 35 -83 35 -87 0 -5 -442 -7
-982 -6 l-983 3 -3 74 c-2 41 -1 80 2 88 5 11 165 13 951 11 l946 -3 34 -80z
m193 -304 c66 -76 193 -171 294 -222 l79 -40 -3 -82 -3 -82 -922 -3 -923 -2 0
-75 0 -75 805 0 806 0 -3 -82 -3 -83 -1127 -3 -1128 -2 0 85 0 85 243 2 242 3
3 73 3 72 -366 0 -365 0 0 245 0 245 1158 0 1158 0 52 -59z m2444 -793 c34
-113 -73 -221 -187 -188 -33 10 -89 61 -313 283 l-272 272 107 107 108 108
273 -272 c208 -209 275 -282 284 -310z m-2074 -350 l-3 -243 -1367 -3 -1368
-2 0 245 0 245 1370 0 1370 0 -2 -242z"/>
<path d="M400 4005 l0 -75 80 0 81 0 -3 73 -3 72 -77 3 -78 3 0 -76z"/>
<path d="M720 4005 l0 -75 80 0 80 0 0 75 0 75 -80 0 -80 0 0 -75z"/>
<path d="M1040 4005 l0 -75 800 0 800 0 0 75 0 75 -800 0 -800 0 0 -75z"/>
<path d="M3175 3670 c-286 -45 -525 -265 -591 -545 -24 -102 -15 -283 18 -387
103 -317 390 -507 731 -485 352 23 610 270 657 630 54 401 -260 769 -675 792
-44 2 -107 0 -140 -5z m250 -165 c198 -51 348 -199 401 -395 96 -357 -171
-710 -538 -711 -162 -1 -289 51 -403 166 -114 113 -165 236 -165 395 0 262
163 477 411 544 72 19 220 20 294 1z"/>
<path d="M400 3045 l0 -75 80 0 81 0 -3 73 -3 72 -77 3 -78 3 0 -76z"/>
<path d="M720 3045 l0 -75 80 0 81 0 -3 73 -3 72 -77 3 -78 3 0 -76z"/>
<path d="M400 2075 l0 -76 78 3 77 3 3 73 3 72 -81 0 -80 0 0 -75z"/>
<path d="M720 2075 l0 -76 78 3 77 3 3 73 3 72 -81 0 -80 0 0 -75z"/>
<path d="M1040 2075 l0 -75 720 0 720 0 0 75 0 75 -720 0 -720 0 0 -75z"/>
<path d="M400 1115 l0 -76 78 3 77 3 3 73 3 72 -81 0 -80 0 0 -75z"/>
<path d="M720 1115 l0 -75 80 0 80 0 0 75 0 75 -80 0 -80 0 0 -75z"/>
<path d="M1040 1115 l0 -75 800 0 800 0 0 75 0 75 -800 0 -800 0 0 -75z"/>
</g>
</svg>
