<?xml version="1.0" standalone="no"?>
<!DOCTYPE svg PUBLIC "-//W3C//DTD SVG 20010904//EN"
 "http://www.w3.org/TR/2001/REC-SVG-20010904/DTD/svg10.dtd">
<svg version="1.0" xmlns="http://www.w3.org/2000/svg"
 width="512.000000pt" height="512.000000pt" viewBox="0 0 512.000000 512.000000"
 preserveAspectRatio="xMidYMid meet">

<g transform="translate(0.000000,512.000000) scale(0.100000,-0.100000)"
fill="#000000" stroke="none">
<path d="M2355 5110 c-321 -27 -628 -112 -920 -255 -766 -374 -1287 -1098
-1411 -1960 -24 -165 -24 -505 0 -670 40 -280 122 -547 241 -790 378 -769
1098 -1288 1960 -1411 153 -22 530 -25 660 -6 591 89 1084 332 1485 732 400
401 643 894 732 1485 19 130 16 507 -6 660 -66 464 -254 906 -536 1260 -399
501 -994 842 -1633 936 -152 22 -429 31 -572 19z m924 -1589 c111 -316 201
-577 201 -581 0 -3 -83 -40 -185 -80 -102 -40 -185 -78 -185 -84 0 -13 318
-924 332 -949 9 -17 7 -18 -19 -13 -56 11 -300 47 -423 61 -549 63 -1100 34
-1479 -80 -46 -14 -86 -24 -87 -22 -2 1 -26 67 -53 146 -28 80 -53 146 -56
149 -2 2 -114 -40 -249 -94 -135 -54 -247 -96 -249 -93 -5 5 -156 440 -159
458 -2 10 66 39 242 102 499 177 716 291 1060 557 317 246 732 665 1024 1035
49 61 72 84 77 74 4 -7 98 -271 208 -586z m457 399 c49 -22 88 -43 87 -47 -2
-11 -222 -516 -226 -519 -6 -6 -177 70 -177 79 0 9 221 527 225 527 2 0 43
-18 91 -40z m658 -646 c21 -48 34 -90 29 -95 -4 -4 -152 -69 -328 -143 -233
-99 -321 -132 -327 -123 -21 34 -71 171 -62 175 5 2 149 63 319 137 171 73
315 133 321 134 6 1 28 -38 48 -85z m-262 -740 c150 -36 275 -68 277 -70 3 -2
-5 -46 -18 -98 l-22 -93 -222 54 c-122 30 -244 59 -272 65 -27 5 -53 13 -57
17 -6 5 31 191 38 191 1 0 126 -30 276 -66z"/>
</g>
</svg>
