<?xml version="1.0" standalone="no"?>
<!DOCTYPE svg PUBLIC "-//W3C//DTD SVG 20010904//EN"
 "http://www.w3.org/TR/2001/REC-SVG-20010904/DTD/svg10.dtd">
<svg version="1.0" xmlns="http://www.w3.org/2000/svg"
 width="512.000000pt" height="512.000000pt" viewBox="0 0 512.000000 512.000000"
 preserveAspectRatio="xMidYMid meet">

<g transform="translate(0.000000,512.000000) scale(0.100000,-0.100000)"
fill="#000000" stroke="none">
<path d="M2433 4960 c-164 -30 -305 -127 -385 -267 l-29 -52 -442 -3 -442 -3
-68 -27 c-171 -69 -296 -214 -333 -387 -21 -101 -20 -3534 1 -3636 41 -192
191 -350 380 -400 52 -13 229 -15 1405 -15 1484 0 1399 -3 1524 63 75 40 162
124 204 198 18 32 41 92 52 135 20 76 20 114 20 1833 0 1469 -3 1767 -14 1822
-37 173 -162 318 -333 387 l-68 27 -442 3 -442 3 -32 57 c-104 184 -347 299
-556 262z m190 -253 c54 -18 125 -73 150 -114 12 -21 31 -62 42 -92 32 -89 58
-101 223 -101 l134 0 -4 -92 c-6 -139 -54 -218 -163 -269 l-60 -29 -426 0
-426 0 -61 31 c-109 54 -154 128 -160 267 l-4 92 134 0 c166 0 191 11 223 102
63 178 231 264 398 205z m-993 -387 c0 -104 14 -169 57 -259 42 -89 131 -182
219 -228 112 -59 144 -63 610 -63 239 0 445 4 475 10 87 16 194 75 263 144
106 106 156 231 156 394 l0 82 215 0 c191 0 220 -2 269 -20 65 -25 130 -86
160 -150 l21 -45 0 -1781 0 -1780 -30 -59 c-34 -66 -101 -125 -165 -144 -27
-8 -408 -11 -1368 -11 l-1330 0 -63 33 c-40 20 -75 48 -96 75 -67 89 -63 -37
-61 1907 l3 1760 23 46 c31 64 96 125 157 149 44 17 77 19 268 19 l217 1 0
-80z"/>
<path d="M3145 2770 c-11 -5 -200 -185 -420 -399 l-400 -391 -135 133 c-286
281 -293 287 -339 287 -56 0 -95 -22 -115 -64 -20 -43 -20 -64 2 -103 9 -17
132 -144 273 -282 276 -268 290 -278 356 -249 49 21 930 885 944 925 15 47 3
87 -37 123 -36 31 -86 39 -129 20z"/>
</g>
</svg>
