<?xml version="1.0" standalone="no"?>
<!DOCTYPE svg PUBLIC "-//W3C//DTD SVG 20010904//EN"
 "http://www.w3.org/TR/2001/REC-SVG-20010904/DTD/svg10.dtd">
<svg version="1.0" xmlns="http://www.w3.org/2000/svg"
 width="512.000000pt" height="512.000000pt" viewBox="0 0 512.000000 512.000000"
 preserveAspectRatio="xMidYMid meet">

<g transform="translate(0.000000,512.000000) scale(0.100000,-0.100000)"
fill="#000000" stroke="none">
<path d="M608 5099 c-23 -12 -46 -35 -58 -59 -18 -36 -20 -58 -20 -290 l0
-250 -205 0 c-238 0 -268 -8 -305 -80 -20 -39 -20 -54 -20 -2170 0 -2116 0
-2131 20 -2170 13 -26 34 -47 60 -60 39 -20 53 -20 2480 -20 2427 0 2441 0
2480 20 26 13 47 34 60 60 20 39 20 54 20 2170 0 2116 0 2131 -20 2170 -37 72
-67 80 -305 80 l-205 0 0 250 c0 232 -2 254 -20 290 -23 45 -80 80 -130 80
-50 0 -107 -35 -130 -80 -18 -36 -20 -58 -20 -290 l0 -250 -1730 0 -1730 0 0
250 c0 232 -2 254 -20 290 -37 73 -127 99 -202 59z m4212 -1049 l0 -150 -2260
0 -2260 0 0 150 0 150 2260 0 2260 0 0 -150z m0 -2100 l0 -1650 -2260 0 -2260
0 0 1650 0 1650 2260 0 2260 0 0 -1650z"/>
<path d="M678 3279 c-43 -22 -78 -81 -78 -129 0 -50 35 -107 80 -130 35 -18
59 -20 220 -20 210 0 244 10 280 80 25 50 25 90 0 140 -36 71 -69 80 -282 80
-162 -1 -187 -3 -220 -21z"/>
<path d="M1582 3283 c-52 -25 -77 -69 -77 -133 0 -41 6 -63 22 -86 48 -67 -8
-64 1022 -64 914 0 933 0 971 20 45 23 80 80 80 130 0 50 -35 107 -80 130 -38
20 -57 20 -972 20 -839 0 -936 -2 -966 -17z"/>
<path d="M3978 3279 c-43 -22 -78 -81 -78 -129 0 -50 35 -107 80 -130 35 -18
59 -20 230 -20 171 0 195 2 230 20 45 23 80 80 80 130 0 50 -35 107 -80 130
-35 18 -58 20 -232 20 -172 -1 -197 -3 -230 -21z"/>
<path d="M678 2679 c-43 -22 -78 -81 -78 -129 0 -50 35 -107 80 -130 35 -18
59 -20 220 -20 210 0 244 10 280 80 25 50 25 90 0 140 -36 71 -69 80 -282 80
-162 -1 -187 -3 -220 -21z"/>
<path d="M1582 2683 c-52 -25 -77 -69 -77 -133 0 -41 6 -63 22 -86 48 -67 -8
-64 1022 -64 914 0 933 0 971 20 45 23 80 80 80 130 0 50 -35 107 -80 130 -38
20 -57 20 -972 20 -839 0 -936 -2 -966 -17z"/>
<path d="M3978 2679 c-43 -22 -78 -81 -78 -129 0 -50 35 -107 80 -130 35 -18
59 -20 230 -20 171 0 195 2 230 20 45 23 80 80 80 130 0 50 -35 107 -80 130
-35 18 -58 20 -232 20 -172 -1 -197 -3 -230 -21z"/>
<path d="M678 2079 c-43 -22 -78 -81 -78 -129 0 -50 35 -107 80 -130 35 -18
59 -20 220 -20 210 0 244 10 280 80 25 50 25 90 0 140 -36 71 -69 80 -282 80
-162 -1 -187 -3 -220 -21z"/>
<path d="M1582 2083 c-52 -25 -77 -69 -77 -133 0 -41 6 -63 22 -86 48 -67 -8
-64 1022 -64 914 0 933 0 971 20 45 23 80 80 80 130 0 50 -35 107 -80 130 -38
20 -57 20 -972 20 -839 0 -936 -2 -966 -17z"/>
<path d="M3978 2079 c-43 -22 -78 -81 -78 -129 0 -50 35 -107 80 -130 35 -18
59 -20 230 -20 171 0 195 2 230 20 45 23 80 80 80 130 0 50 -35 107 -80 130
-35 18 -58 20 -232 20 -172 -1 -197 -3 -230 -21z"/>
<path d="M678 1479 c-43 -22 -78 -81 -78 -129 0 -50 35 -107 80 -130 35 -18
59 -20 220 -20 210 0 244 10 280 80 25 50 25 90 0 140 -36 71 -69 80 -282 80
-162 -1 -187 -3 -220 -21z"/>
<path d="M1582 1483 c-52 -25 -77 -69 -77 -133 0 -41 6 -63 22 -86 48 -67 -8
-64 1022 -64 914 0 933 0 971 20 45 23 80 80 80 130 0 50 -35 107 -80 130 -38
20 -57 20 -972 20 -839 0 -936 -2 -966 -17z"/>
<path d="M3978 1479 c-43 -22 -78 -81 -78 -129 0 -50 35 -107 80 -130 35 -18
59 -20 230 -20 171 0 195 2 230 20 45 23 80 80 80 130 0 50 -35 107 -80 130
-35 18 -58 20 -232 20 -172 -1 -197 -3 -230 -21z"/>
<path d="M678 879 c-43 -22 -78 -81 -78 -129 0 -50 35 -107 80 -130 35 -18 59
-20 220 -20 210 0 244 10 280 80 25 50 25 90 0 140 -36 71 -69 80 -282 80
-162 -1 -187 -3 -220 -21z"/>
<path d="M1582 883 c-52 -25 -77 -69 -77 -133 0 -41 6 -63 22 -86 48 -67 -8
-64 1022 -64 914 0 933 0 971 20 45 23 80 80 80 130 0 50 -35 107 -80 130 -38
20 -57 20 -972 20 -839 0 -936 -2 -966 -17z"/>
<path d="M3978 879 c-43 -22 -78 -81 -78 -129 0 -50 35 -107 80 -130 35 -18
59 -20 230 -20 171 0 195 2 230 20 45 23 80 80 80 130 0 50 -35 107 -80 130
-35 18 -58 20 -232 20 -172 -1 -197 -3 -230 -21z"/>
</g>
</svg>
